<svg version="1.1" xmlns="http://www.w3.org/2000/svg" xmlns:xlink="http://www.w3.org/1999/xlink" width="24px" height="24px" viewBox="0,0,256,256"><g fill="#ffffff" fill-rule="nonzero" stroke="none" stroke-width="1" stroke-linecap="butt" stroke-linejoin="miter" stroke-miterlimit="10" stroke-dasharray="" stroke-dashoffset="0" font-family="none" font-weight="none" font-size="none" text-anchor="none" style="mix-blend-mode: normal"><g transform="translate(0,-0.00533) scale(10.66667,10.66667)"><path d="M24,13.455h-0.689l-0.288,-0.739h-1.2l-0.289,0.739h-0.644l1.233,-2.96h0.666zM22.84,12.222l-0.411,-1.044l-0.411,1.044zM18.525,13.455h0.66v-2.438h0.995v-0.51h-2.644v0.51h0.989zM14.699,13.455h1.927v-0.511h-1.266v-2.438h-0.661zM11.417,11.017h1.416v-0.51h-2.077v2.948h2.121v-0.511h-1.46v-0.766h1.25v-0.511h-1.25zM6.436,13.455h1.038c1.072,0 1.71,-0.555 1.71,-1.472c0,-0.916 -0.638,-1.471 -1.71,-1.471h-1.038zM7.091,11.017h0.383c0.694,0 1.044,0.344 1.044,0.96c0,0.617 -0.344,0.961 -1.044,0.961h-0.383zM4.814,13.172c0.08284,0 0.15,0.06716 0.15,0.15c0,0.08284 -0.06716,0.15 -0.15,0.15c-0.08284,0 -0.15,-0.06716 -0.15,-0.15c0,-0.08284 0.06716,-0.15 0.15,-0.15M4.814,13.449c0.03465,0.00108 0.0683,-0.01173 0.09346,-0.03558c0.02516,-0.02385 0.03976,-0.05676 0.04054,-0.09142c0,-0.073 -0.056,-0.128 -0.134,-0.128c-0.03394,-0.00027 -0.06655,0.01316 -0.09046,0.03725c-0.02391,0.02409 -0.03708,0.05681 -0.03654,0.09075c0,0.072 0.055,0.127 0.127,0.127M4.781,13.41h-0.021v-0.177h0.067c0.038,0 0.055,0.016 0.055,0.05c0,0.033 -0.022,0.044 -0.044,0.05l0.055,0.077h-0.028l-0.05,-0.077h-0.033zM4.781,13.31h0.028c0.022,0 0.05,0 0.05,-0.027c0,-0.022 -0.022,-0.028 -0.039,-0.028h-0.039zM0,13.85h4.626l-2.31,-0.978zM0.172,13.455l2.144,-1.033l2.143,1.033l-2.143,-3.304z"></path></g></g></svg>