<svg version="1.1" xmlns="http://www.w3.org/2000/svg" xmlns:xlink="http://www.w3.org/1999/xlink" width="24px" height="24px" viewBox="0,0,256,256"><g fill="#ffffff" fill-rule="nonzero" stroke="none" stroke-width="1" stroke-linecap="butt" stroke-linejoin="miter" stroke-miterlimit="10" stroke-dasharray="" stroke-dashoffset="0" font-family="none" font-weight="none" font-size="none" text-anchor="none" style="mix-blend-mode: normal"><g transform="translate(0,-0.00533) scale(10.66667,10.66667)"><path d="M4.22,10.303l-0.767,1.043h4.18c0.21,0 0.208,0.078 0.105,0.218c-0.105,0.142 -0.28,0.39 -0.386,0.534c-0.054,0.073 -0.154,0.207 0.171,0.207h1.71l0.505,-0.69c0.314,-0.426 0.028,-1.312 -1.095,-1.312zM11.424,10.303l-1.475,2.002h5.39l1.473,-2.002h-2.202l-0.843,1.146h-0.985l0.846,-1.146h-2.203zM17.529,10.303l-1.474,2.002h2.334l1.472,-2.002h-2.331zM4.684,11.603l-1.54,2.094h3.754c1.24,0 1.932,-0.844 2.145,-1.136h-2.56c-0.326,0 -0.226,-0.133 -0.172,-0.207c0.107,-0.143 0.283,-0.388 0.388,-0.53c0.104,-0.14 0.107,-0.22 -0.105,-0.22h-1.91zM0,12.562v0.242h3.398l0.176,-0.242zM9.762,12.562l-0.836,1.136h2.203l0.836,-1.136zM12.947,12.562l-0.836,1.136h2.203l0.836,-1.136zM15.865,12.562c0,0 -0.159,0.22 -0.238,0.326c-0.276,0.374 -0.033,0.81 0.87,0.81h3.538l0.834,-1.136zM21.273,12.562l-0.177,0.242h2.904v-0.242zM0,13.01v0.24h3.068l0.178,-0.24zM20.943,13.01l-0.175,0.24h3.232v-0.24zM0,13.457v0.24h2.74l0.176,-0.24zM20.615,13.457l-0.177,0.24h3.562v-0.24z"></path></g></g></svg>