<svg version="1.1" xmlns="http://www.w3.org/2000/svg" xmlns:xlink="http://www.w3.org/1999/xlink" width="24px" height="24px" viewBox="0,0,256,256"><g fill="#ffffff" fill-rule="nonzero" stroke="none" stroke-width="1" stroke-linecap="butt" stroke-linejoin="miter" stroke-miterlimit="10" stroke-dasharray="" stroke-dashoffset="0" font-family="none" font-weight="none" font-size="none" text-anchor="none" style="mix-blend-mode: normal"><g transform="translate(-0.00036,0.00382) scale(10.66667,10.66667)"><path d="M22.498,14.298c-0.016,-0.414 0.345,-0.751 0.75,-0.755c0.20054,-0.0019 0.39338,0.07713 0.53491,0.21922c0.14153,0.14209 0.21979,0.33525 0.21709,0.53578c-0.00545,0.41151 -0.33946,0.74286 -0.751,0.745c-0.395,0.002 -0.759,-0.346 -0.751,-0.745zM23.257,14.215c0.067,-0.02 0.164,-0.042 0.162,-0.13c0.007,-0.09 -0.086,-0.133 -0.162,-0.134h-0.163v0.263c0,0.001 0.165,-0.002 0.163,0.001zM23.094,14.322v0.418h-0.14v-0.91h0.327c0.156,-0.021 0.294,0.092 0.286,0.253c-0.00793,0.08941 -0.06984,0.16482 -0.156,0.19c0.162,0.083 0.108,0.322 0.173,0.467h-0.156c-0.01636,-0.06771 -0.0297,-0.13611 -0.04,-0.205c-0.018,-0.093 -0.047,-0.229 -0.17,-0.213zM23.854,14.298c0.00796,-0.16524 -0.05232,-0.32649 -0.16671,-0.44599c-0.11439,-0.1195 -0.27286,-0.18675 -0.43829,-0.18601c-0.338,-0.012 -0.62,0.302 -0.605,0.632c-0.00172,0.33764 0.26745,0.61437 0.605,0.622c0.16301,-0.0013 0.31872,-0.0678 0.43239,-0.18466c0.11366,-0.11686 0.17582,-0.27435 0.17261,-0.43734zM18.802,13.719l-0.878,1.008h-1.306l1.559,-1.745l-1.56,-1.75h1.355l0.902,0.997l0.878,-0.998h1.306l-1.543,1.743l1.559,1.753h-1.371zM14.099,13.367v-0.827h1.904v-1.506l1.724,1.948l-1.724,1.941v-1.556zM15.659,14.727h-3.2v-5.683h3.224v1.024h-1.913v1.163h1.888v0.958h-1.904v1.522h1.904v1.016zM9.954,14.072c-0.54,0.017 -0.878,-0.552 -0.877,-1.04c-0.01,-0.507 0.307,-1.123 0.878,-1.105c0.579,-0.025 0.871,0.6 0.845,1.103c0.023,0.501 -0.29,1.062 -0.846,1.042zM4.743,12.41c0.076,-0.358 0.403,-0.67 0.78,-0.663c0.39636,-0.01254 0.74029,0.27143 0.803,0.663zM19.925,12.974l1.815,-2.047h-2.125l-0.74,0.844l-0.763,-0.844h-4.037v-0.548h1.912v-1.638h-5.147v2.58c-0.362,-0.448 -0.981,-0.559 -1.526,-0.492c-0.782,0.123 -1.427,0.762 -1.634,1.514c-0.254,-0.958 -1.179,-1.588 -2.157,-1.554c-0.781,0.009 -1.6,0.365 -1.987,1.071v-0.818h-1.87v-0.9h2.043v-1.4h-3.709v6.287h1.666v-2.644h1.666c-0.03589,0.20611 -0.06325,0.41363 -0.082,0.622c-0.013,1.232 1.042,2.27 2.274,2.236c0.95314,0.03978 1.82368,-0.53816 2.157,-1.432h-1.427c-0.14,0.268 -0.441,0.38 -0.73,0.36c-0.457,0.009 -0.83,-0.417 -0.829,-0.86h2.914c0.083,1.027 0.988,1.966 2.043,1.947c0.47431,-0.0169 0.91391,-0.25296 1.19,-0.639v0.41h7.215l0.754,-0.86l0.754,0.86h2.192z"></path></g></g></svg>