<svg version="1.1" xmlns="http://www.w3.org/2000/svg" xmlns:xlink="http://www.w3.org/1999/xlink" width="24px" height="24px" viewBox="0,0,256,256"><g fill="#ffffff" fill-rule="nonzero" stroke="none" stroke-width="1" stroke-linecap="butt" stroke-linejoin="miter" stroke-miterlimit="10" stroke-dasharray="" stroke-dashoffset="0" font-family="none" font-weight="none" font-size="none" text-anchor="none" style="mix-blend-mode: normal"><g transform="translate(-0.0026,0.00166) scale(10.66667,10.66667)"><path d="M23.8,13.154c-0.03201,-0.01383 -0.06619,-0.02195 -0.101,-0.024c-0.07035,-0.00173 -0.13995,0.01481 -0.202,0.048c-0.06,0.028 -0.092,0.08 -0.127,0.136c-0.087,0.128 -0.15,0.268 -0.226,0.4c-0.107,0.187 -0.246,0.351 -0.38,0.515c-0.135,0.156 -0.286,0.291 -0.424,0.44c-0.028,0.027 -0.072,0.043 -0.107,0.027c-0.028,-0.016 -0.036,-0.056 -0.032,-0.088c0.04,-0.38 0.075,-0.763 0.123,-1.138c0.02,-0.172 0.043,-0.336 0.063,-0.512c0.028,-0.247 0.056,-0.487 0.087,-0.735l0.234,-1.824c0.02,-0.128 0.032,-0.372 -0.135,-0.52c-0.06441,-0.06097 -0.14553,-0.10136 -0.233,-0.116c-0.08868,-0.00494 -0.1769,0.0159 -0.254,0.06c-0.226,0.16 -0.297,0.504 -0.365,0.76c-0.142,0.603 -0.178,1.241 -0.471,1.804c-0.05597,0.11218 -0.12368,0.21811 -0.202,0.316c-0.04967,0.07155 -0.11286,0.1327 -0.186,0.18c-0.07215,0.04857 -0.16049,0.06688 -0.246,0.051c-0.10659,-0.02939 -0.19411,-0.10551 -0.238,-0.207c-0.04151,-0.103 -0.06289,-0.21297 -0.063,-0.324c-0.01553,-0.53844 0.06576,-1.07529 0.24,-1.585c0.045,-0.132 0.089,-0.252 0.104,-0.383c0.028,-0.156 0.028,-0.38 -0.114,-0.516c-0.131,-0.128 -0.337,-0.18 -0.504,-0.128c-0.194,0.056 -0.31,0.244 -0.372,0.392c-0.198,0.463 -0.25,0.95 -0.317,1.446c-0.044,0.327 -0.127,0.64 -0.293,0.926c-0.15768,0.27318 -0.36173,0.51682 -0.603,0.72c-0.118,0.087 -0.222,0.123 -0.328,0.107c-0.12105,-0.01984 -0.22481,-0.09747 -0.278,-0.208c-0.0513,-0.09805 -0.08354,-0.20494 -0.095,-0.315c-0.03087,-0.20379 -0.04293,-0.41 -0.036,-0.616c0.004,-0.223 0,-0.44 0.044,-0.658c0.075,-0.39 0.678,-1.937 0.808,-2.345c0.135,-0.407 0.262,-0.823 0.353,-1.246c0.08,-0.38 0.123,-0.767 0.11,-1.15c-0.007,-0.277 -0.07,-0.576 -0.288,-0.736c-0.17841,-0.12118 -0.40761,-0.13943 -0.603,-0.048c-0.1948,0.08847 -0.3548,0.23897 -0.455,0.428c-0.09969,0.18645 -0.17562,0.38466 -0.226,0.59c-0.1122,0.42481 -0.201,0.85546 -0.266,1.29c-0.071,0.429 -0.138,0.848 -0.206,1.268c-0.06,0.355 -0.206,1.614 -0.261,1.88c-0.06,0.272 -0.175,0.54 -0.301,0.787c-0.131,0.268 -0.258,0.536 -0.408,0.791c-0.04225,0.08594 -0.10184,0.16221 -0.175,0.224c-0.08,0.06 -0.182,0.088 -0.27,0.048c-0.102,-0.048 -0.146,-0.176 -0.166,-0.292c-0.075,-0.435 -0.012,-0.875 0.072,-1.302c0.083,-0.431 0.44,-2.4 0.519,-2.851c0.099,-0.532 0.24,-1.05 0.285,-1.59c0.028,-0.388 0.09,-0.88 -0.202,-1.187c-0.115,-0.136 -0.31,-0.16 -0.44,-0.136c-0.174,0.036 -0.31,0.176 -0.388,0.296c-0.1,0.128 -0.186,0.28 -0.258,0.467c-0.115,0.284 -0.186,0.615 -0.261,0.91l-0.032,0.129c-0.083,0.383 -0.143,0.77 -0.186,1.162c-0.02394,0.21027 -0.04395,0.42098 -0.06,0.632c-0.008,0.1 -0.016,0.203 -0.027,0.307c0,0.08 0.007,0.168 -0.028,0.244c-0.01404,0.02501 -0.03155,0.0479 -0.052,0.068c-0.08,0.072 -0.202,0.06 -0.31,0.056c-0.557,-0.016 -1.045,0.3 -1.35,0.755c-0.18,0.252 -0.281,0.542 -0.39,0.834c-0.01,0.048 -0.034,0.1 -0.054,0.152c-0.051,0.143 -0.13,0.327 -0.222,0.511c-0.09131,0.16275 -0.19743,0.31673 -0.317,0.46c-0.11606,0.14738 -0.24453,0.28455 -0.384,0.41c-0.1461,0.13003 -0.32362,0.21966 -0.515,0.26c-0.174,0.04 -0.384,-0.043 -0.543,-0.203c-0.12514,-0.15305 -0.19741,-0.34249 -0.206,-0.54c-0.004,-0.055 -0.004,-0.115 0.028,-0.163c0.05,-0.068 0.146,-0.072 0.23,-0.076c0.61378,-0.05008 1.14634,-0.44321 1.375,-1.015c0.138,-0.34 0.178,-0.698 0.122,-1.046c-0.02754,-0.17195 -0.09239,-0.33578 -0.19,-0.48c-0.09802,-0.14367 -0.23556,-0.25586 -0.396,-0.323c-0.293,-0.14 -0.658,-0.127 -1.01,0.004c-0.575,0.232 -0.951,0.74 -1.134,1.562l-0.02,0.088c-0.114,0.487 -0.23,1 -0.582,1.354c-0.127,0.12 -0.261,0.163 -0.368,0.143c-0.044,-0.004 -0.08,-0.04 -0.103,-0.075c-0.096,-0.16 0.003,-0.532 0.15,-1c0.03896,-0.12039 0.07233,-0.24252 0.1,-0.366c0.01077,-0.17184 -0.02663,-0.34327 -0.108,-0.495c-0.08585,-0.14526 -0.21633,-0.2589 -0.372,-0.324c-0.143,-0.064 -0.31,-0.06 -0.468,-0.06h-0.047c-0.044,0 -0.103,0 -0.151,-0.012c-0.06642,-0.01652 -0.12101,-0.06368 -0.147,-0.127c-0.01356,-0.07749 -0.00807,-0.15711 0.016,-0.232c0.004,-0.02 0.012,-0.048 0.016,-0.072c0.04388,-0.15809 -0.0222,-0.32613 -0.162,-0.412c-0.14083,-0.08751 -0.31545,-0.10094 -0.468,-0.036c-0.157,0.07179 -0.28523,0.19439 -0.364,0.348c-0.08585,0.14445 -0.12203,0.31304 -0.103,0.48c0.04,0.13 0.07,0.32 0.043,0.475c-0.055,0.28 -0.222,0.51 -0.384,0.74c-0.04,0.05 -0.072,0.106 -0.107,0.16c-0.20443,0.30001 -0.44118,0.57667 -0.706,0.825c-0.372,0.335 -0.804,0.575 -1.232,0.67c-0.745,0.165 -1.506,-0.06 -1.91,-0.734c-0.222,-0.38 -0.32,-0.827 -0.348,-1.266c-0.0607,-0.86045 0.08465,-1.72297 0.424,-2.516c0.328,-0.76 0.816,-1.52 1.715,-1.614c0.353,-0.04 0.753,0.083 0.912,0.4c0.115,0.23 0.075,0.506 0,0.75c-0.072,0.244 -0.175,0.49 -0.18,0.75c-0.003,0.26 0.124,0.54 0.37,0.616c0.238,0.072 0.495,-0.08 0.634,-0.29c0.138,-0.21 0.186,-0.46 0.245,-0.704c0.14274,-0.57308 0.3656,-1.12316 0.662,-1.634c0.139,-0.236 0.297,-0.488 0.254,-0.76c-0.03831,-0.19652 -0.18166,-0.35602 -0.373,-0.415c-0.19125,-0.05343 -0.39641,0.00179 -0.535,0.144c-0.134,0.148 -0.206,0.371 -0.387,0.43c-0.17,0.06 -0.35,-0.055 -0.507,-0.134c-0.6,-0.32 -1.336,-0.312 -1.963,-0.048c-0.634,0.25 -1.146,0.735 -1.526,1.294c-0.543,0.808 -0.907,1.786 -0.983,2.758c-0.027,0.34 -0.031,0.695 0,1.038c0.036,0.46 0.1,0.854 0.214,1.206c0.139,0.423 0.317,0.79 0.547,1.094c0.266,0.34 0.587,0.6 0.94,0.747c0.372,0.148 0.784,0.22 1.192,0.208c0.40686,-0.0179 0.80647,-0.11398 1.177,-0.283c0.37291,-0.17617 0.71846,-0.40519 1.026,-0.68c0.309,-0.26 0.594,-0.559 0.84,-0.89c0.162,-0.224 0.309,-0.46 0.44,-0.708c0.06489,-0.12501 0.12428,-0.2528 0.178,-0.383c0.044,-0.104 0.087,-0.215 0.202,-0.26c0.056,-0.043 0.15,-0.02 0.202,0.013c0.064,0.04 0.115,0.075 0.135,0.135c0.048,0.116 0.02,0.232 -0.004,0.332v0.012c-0.028,0.1 -0.055,0.203 -0.091,0.303c-0.14,0.424 -0.238,0.811 -0.16,1.195c0.045,0.207 0.128,0.387 0.25,0.527c0.13218,0.14395 0.31041,0.23731 0.504,0.264c0.246,0.04 0.51,-0.028 0.725,-0.132c0.143,-0.068 0.278,-0.156 0.397,-0.26c0.06,-0.06 0.122,-0.12 0.174,-0.184c0.044,-0.06 0.087,-0.147 0.178,-0.143c0.04326,0.0048 0.08231,0.02815 0.107,0.064c0.028,0.031 0.04,0.071 0.06,0.115c0.23,0.52 0.776,0.84 1.335,0.84h0.07c0.27,0 0.556,-0.093 0.79,-0.22c0.27,-0.14 0.48,-0.348 0.7,-0.552c0.02,-0.016 0.045,-0.04 0.073,-0.044c0.035,-0.008 0.07,0.012 0.099,0.044c0.02265,0.02958 0.03868,0.06368 0.047,0.1c0.135,0.34 0.46,0.6 0.824,0.66c0.36903,0.05706 0.74182,-0.07699 0.99,-0.356c0.056,-0.06 0.104,-0.128 0.167,-0.176c0.064,-0.044 0.15,-0.076 0.222,-0.044c0.107,0.04 0.135,0.164 0.182,0.268c0.107,0.235 0.357,0.371 0.615,0.375c0.289,0 0.554,-0.148 0.764,-0.34c0.195,-0.183 0.353,-0.399 0.516,-0.61c0.02784,-0.03941 0.06404,-0.07219 0.106,-0.096c0.04,-0.024 0.096,-0.028 0.13,0c0.033,0.024 0.045,0.06 0.06,0.091c0.163,0.4 0.587,0.652 1.01,0.648c0.417,-0.004 0.809,-0.224 1.103,-0.516c0.095,-0.092 0.194,-0.2 0.32,-0.21c0.14,-0.017 0.207,0.114 0.254,0.22c0.072,0.142 0.115,0.238 0.25,0.338c0.158,0.116 0.36,0.152 0.547,0.1c0.17,-0.04 0.34,-0.156 0.47,-0.316c0.072,-0.088 0.112,-0.204 0.19,-0.284c0.092,-0.087 0.132,0.028 0.136,0.1c0.016,0.116 0.016,0.236 0.008,0.352c-0.016,0.236 -0.052,0.471 -0.08,0.703c-0.011,0.068 -0.02,0.136 -0.063,0.188c-0.06,0.068 -0.166,0.08 -0.253,0.064c-0.1064,-0.01528 -0.21356,-0.02463 -0.321,-0.028l-0.14,-0.016c-0.201,-0.012 -0.4,-0.036 -0.61,-0.044h-0.185c-0.404,0 -0.733,0.048 -1.03,0.16c-0.48,0.187 -0.852,0.57 -1.003,1.018c-0.07037,0.20567 -0.08824,0.42567 -0.052,0.64c0.04,0.203 0.13,0.403 0.282,0.587c0.265,0.315 0.68,0.515 1.149,0.543c0.408,0.02 0.852,-0.064 1.292,-0.26c0.848,-0.367 1.482,-1.094 1.696,-1.95c0,-0.02 0.01,-0.039 0.023,-0.043c0.298,-0.104 0.57,-0.248 0.813,-0.428c0.245,-0.187 0.467,-0.399 0.65,-0.643c0.09,-0.12 0.174,-0.243 0.253,-0.37c0.07,-0.125 0.13,-0.257 0.202,-0.38c0.06298,-0.09613 0.1071,-0.20337 0.13,-0.316c0.03017,-0.1115 0.01202,-0.23055 -0.05,-0.328c-0.02823,-0.05652 -0.07629,-0.10067 -0.135,-0.124M10.121,11.525c0.017,-0.071 0.045,-0.14 0.06,-0.206c0.06159,-0.18018 0.14991,-0.35008 0.262,-0.504c0.04,-0.048 0.08,-0.1 0.135,-0.136c0.05293,-0.04055 0.12006,-0.05787 0.186,-0.048c0.107,0.02 0.183,0.128 0.202,0.236c0.032,0.18 -0.04,0.396 -0.114,0.555c-0.06872,0.1611 -0.17502,0.3034 -0.31,0.415c-0.06,0.044 -0.114,0.088 -0.178,0.116c-0.028,0.008 -0.063,0.028 -0.115,0.028h-0.016c-0.055,0 -0.114,-0.028 -0.126,-0.088c-0.02257,-0.12191 -0.01745,-0.24734 0.015,-0.367M14.43,11.342c-0.004,0.072 -0.024,0.148 -0.028,0.223c-0.02063,0.25926 -0.02063,0.51974 0,0.779c0.012,0.152 0.047,0.3 -0.016,0.444c-0.09102,0.28405 -0.29657,0.51716 -0.567,0.643c-0.07631,0.03715 -0.16013,0.05631 -0.245,0.056c-0.02,0 -0.04,-0.004 -0.06,-0.004c-0.12,0 -0.214,-0.092 -0.265,-0.18c-0.04832,-0.08445 -0.08212,-0.17639 -0.1,-0.272c-0.07697,-0.3737 -0.0521,-0.76121 0.072,-1.122c0.08,-0.22 0.202,-0.435 0.38,-0.594c0.15261,-0.14524 0.35254,-0.23047 0.563,-0.24c0.07411,-0.00402 0.14721,0.01869 0.206,0.064c0.04,0.044 0.06,0.104 0.056,0.164c0.00687,0.01219 0.00832,0.02669 0.004,0.04M20.86,15.996c-0.015,0.044 -0.06,0.104 -0.08,0.14c-0.042,0.08 -0.102,0.163 -0.161,0.235c-0.09677,0.11022 -0.20283,0.21193 -0.317,0.304c-0.238,0.18 -0.503,0.311 -0.777,0.387c-0.1588,0.04372 -0.32234,0.0679 -0.487,0.072h-0.04c-0.18752,0.00262 -0.36994,-0.06113 -0.515,-0.18c-0.08038,-0.06221 -0.13631,-0.15071 -0.158,-0.25c-0.01451,-0.10408 0.00183,-0.21012 0.047,-0.305c0.07678,-0.16901 0.2116,-0.30489 0.38,-0.383c0.326,-0.16 0.682,-0.176 1.019,-0.16c0.139,0.004 0.265,0.012 0.4,0.02c0.107,0.004 0.218,0.012 0.325,0.024c0.056,0 0.115,0.004 0.17,0.012c0.044,0.004 0.092,-0.004 0.135,0.008c0.06,0.004 0.068,0.036 0.06,0.076"></path></g></g></svg>